# xmcd
#
# Track frame offsets:
#	150
#	20144
#	48146
#	73963
#	101203
#	118197
#	162838
#	189367
#
# Disc length: 2729 seconds
#
# Revision: 0
# Processed by: cddbd v1.4PL0 Copyright (c) Steve Scherf et al.
# Submitted via: EasyCDDAExtractor 4.6.0.1
#
DISCID=6f0aa708
DTITLE=East Blues Experience - Live CD2
DYEAR=2001
DGENRE=Blues
TTITLE0=Sweet Jesus
TTITLE1=Let The Good Times Roll
TTITLE2=You Haven´T Done Nothing
TTITLE3=Power Of Soul
TTITLE4=Tribute To Stevie Ray Vaughn
TTITLE5=It´S A Low Down Dity Shame
TTITLE6=Stone Free (Bonustrack)
TTITLE7=Let Bygones Be Bygones (Bonustrack)
EXTD=Live at The Groeninger Bad in Magdeburg/Germany
EXTT0=
EXTT1=
EXTT2=
EXTT3=
EXTT4=
EXTT5=
EXTT6=
EXTT7=
PLAYORDER=
